# Blender v2.79 (sub 0) OBJ File: ''
# www.blender.org
mtllib skybox.mtl
o Cube
v 0.991506 -0.999725 -0.981107
v 0.991506 -0.999725 1.018893
v -1.008494 -0.999725 1.014007
v -1.008494 -0.999725 -0.981107
v 0.991506 1.000275 -0.981106
v 0.991505 1.000275 1.018894
v -1.008495 1.000275 1.018893
v -1.008494 1.000275 -0.981107
v -1.009260 -0.309471 0.164950
vt 0.666667 0.333333
vt 0.666667 0.000000
vt 1.000000 0.000814
vt 1.000000 0.333333
vt 0.666667 0.000000
vt 0.666667 0.333333
vt 0.333334 0.333333
vt 0.333334 0.000000
vt 0.333333 0.666667
vt 0.000000 0.666667
vt 0.000000 0.333334
vt 0.333333 0.333334
vt 0.333334 0.000000
vt 0.333334 0.333333
vt 0.000001 0.333334
vt 0.000000 0.000000
vt 0.000000 0.667481
vt 0.333333 0.666667
vt 0.333333 1.000000
vt 0.000000 1.000000
vt 0.333334 0.333334
vt 0.666667 0.666667
vt 0.333334 0.666667
vn 0.0000 -1.0000 -0.0000
vn 0.0000 1.0000 0.0000
vn 1.0000 0.0000 0.0000
vn -0.0012 -0.0012 1.0000
vn -1.0000 -0.0000 -0.0000
vn 0.0000 0.0000 -1.0000
usemtl Material
s off
f 1/1/1 2/2/1 3/3/1 4/4/1
f 5/5/2 8/6/2 7/7/2 6/8/2
f 1/9/3 5/10/3 6/11/3 2/12/3
f 2/13/4 6/14/4 7/15/4 3/16/4
f 3/17/5 7/18/5 8/19/5 4/20/5
f 5/21/6 1/1/6 4/22/6 8/23/6
l 3 9
